<svg xmlns="http://www.w3.org/2000/svg" viewBox="0 0 1200 620" font-family="Inter,Arial,sans-serif">
  <rect width="1200" height="620" fill="#0B1220"/>
  <text x="40" y="50" font-size="26" font-weight="800" fill="#F8FAFC">Spy de anuncios</text>
  <!-- botones arriba -->
  <rect x="820" y="28" width="160" height="36" rx="8" fill="#1E293B" stroke="#334155"/>
  <text x="845" y="51" font-size="14" fill="#E2E8F0">⟳ Sincronizar reales</text>
  <rect x="990" y="28" width="170" height="36" rx="8" fill="#38BDF8"/>
  <text x="1010" y="51" font-size="14" fill="#082F49">⬆ Importar resultados</text>
  <circle cx="900" cy="46" r="15" fill="#38BDF8"/><text x="894" y="51" font-size="16" font-weight="800" fill="#082F49">1</text>
  <!-- filtros -->
  <rect x="40" y="84" width="1120" height="70" rx="12" fill="#111827" stroke="#1F2937"/>
  <rect x="60" y="104" width="220" height="32" rx="7" fill="#0B1220" stroke="#334155"/><text x="74" y="125" font-size="13" fill="#64748B">Buscar tienda o copy…</text>
  <rect x="300" y="104" width="80" height="32" rx="7" fill="#1E293B"/><text x="318" y="125" font-size="13" fill="#E2E8F0">Todas</text>
  <rect x="388" y="104" width="80" height="32" rx="7" fill="#0B1220" stroke="#334155"/><text x="404" y="125" font-size="13" fill="#CBD5E1">LANZAR</text>
  <rect x="980" y="104" width="160" height="32" rx="7" fill="#0B1220" stroke="#334155"/><text x="1000" y="125" font-size="12" fill="#CBD5E1">Históricos | Nuevos</text>
  <circle cx="120" cy="170" r="15" fill="#38BDF8"/><text x="114" y="175" font-size="16" font-weight="800" fill="#082F49">2</text>
  <!-- tabla -->
  <rect x="40" y="200" width="1120" height="380" rx="12" fill="#111827" stroke="#1F2937"/>
  <g font-size="13" fill="#94A3B8"><text x="60" y="228">Tienda</text><text x="380" y="228">Copy del anuncio</text><text x="720" y="228">Días</text><text x="820" y="228">Winner Score</text><text x="1000" y="228">Semáforo</text></g>
  <line x1="56" y1="240" x2="1144" y2="240" stroke="#1F2937"/>
  <g font-size="14" fill="#E2E8F0">
    <text x="60" y="272">Masajeador Cervical</text><text x="380" y="272" fill="#94A3B8">¡Descubre el poder del alivio…</text><text x="725" y="272">641</text><text x="840" y="272" font-weight="700">7.692</text>
    <rect x="1000" y="258" width="110" height="22" rx="6" fill="#1f2937"/><text x="1014" y="273" font-size="12" fill="#CBD5E1">⚪ SATURADO</text>
    <text x="60" y="312">Jowy Store</text><text x="380" y="312" fill="#94A3B8">WOW ¿Sueñas con una cocina…</text><text x="725" y="312">370</text><text x="840" y="312" font-weight="700">4.440</text>
    <rect x="1000" y="298" width="110" height="22" rx="6" fill="#1f2937"/><text x="1014" y="313" font-size="12" fill="#CBD5E1">⚪ SATURADO</text>
    <text x="60" y="352">CocinaXpress</text><text x="380" y="352" fill="#94A3B8">Organizador 2 niveles acero…</text><text x="725" y="352">42</text><text x="840" y="352" font-weight="700">980</text>
    <rect x="1000" y="338" width="110" height="22" rx="6" fill="#14532d"/><text x="1014" y="353" font-size="12" fill="#86EFAC">🟢 MONITOREAR</text>
    <text x="60" y="392">HEFI SHOP</text><text x="380" y="392" fill="#94A3B8">Cepillo alisador en segundos…</text><text x="725" y="392">9</text><text x="840" y="392" font-weight="700">520</text>
    <rect x="1000" y="378" width="110" height="22" rx="6" fill="#854d0e"/><text x="1014" y="393" font-size="12" fill="#FDE68A">🟡 CONSIDERAR</text>
  </g>
  <circle cx="870" cy="210" r="15" fill="#38BDF8"/><text x="864" y="215" font-size="16" font-weight="800" fill="#082F49">3</text>
  <text x="640" y="450" font-size="14" fill="#7DD3FC">↑ La lista se ordena sola: los más ganadores arriba.</text>
  <circle cx="1080" cy="555" r="15" fill="#38BDF8"/><text x="1074" y="560" font-size="16" font-weight="800" fill="#082F49">4</text>
  <text x="60" y="560" font-size="14" fill="#94A3B8">Toca «Detalle» en cualquier fila para verlo a fondo →</text>
</svg>
